<?xml version="1.0" encoding="utf-8"?>
<!-- Generator: Adobe Illustrator 14.0.0, SVG Export Plug-In . SVG Version: 6.00 Build 43363)  -->
<!DOCTYPE svg PUBLIC "-//W3C//DTD SVG 1.1//EN" "http://www.w3.org/Graphics/SVG/1.1/DTD/svg11.dtd">
<svg version="1.1" id="Layer_1" xmlns="http://www.w3.org/2000/svg" xmlns:xlink="http://www.w3.org/1999/xlink" x="0px" y="0px"
	 width="640px" height="422px" viewBox="0 0 640 422" enable-background="new 0 0 640 422" xml:space="preserve">
<g>
	<path fill="#4D4D4D" d="M7.202,365.232l1.162-1.014h0.435c0.338,0,0.847-0.365,1.524-1.088l0.726-0.289
		c0.968-1.451,1.815-2.297,2.541-2.539l1.162-0.871c0.192-0.193,0.471-0.361,0.833-0.508c0.363-0.143,0.944-0.615,1.744-1.414
		c0.797-0.797,1.438-1.197,1.923-1.197c0.484,0,0.871,0.049,1.161,0.148c0.29-0.58,0.87-1.148,1.743-1.707
		c0.871-0.553,1.573-1.219,2.106-1.992l0.943-0.436c0.774-0.387,1.463-0.883,2.068-1.488c0.604-0.604,1.391-0.906,2.359-0.906
		c1.403,0,2.867,0.715,4.389,2.141c1.523,1.426,2.285,2.791,2.285,4.098l-1.232,5.654c-0.823,4.158-1.74,6.334-2.755,6.527
		l-0.29,1.521c-0.678,0.484-1.016,0.871-1.016,1.16l0.435,1.74c0,0.244-0.266,0.605-0.797,1.09c-0.098,0-0.145,0.143-0.145,0.434
		v2.973c0,0.533-0.339,0.969-1.015,1.307c0.096,0.098,0.241,0.193,0.435,0.289c0.29-0.289,0.942-0.436,1.958-0.436l1.16,0.146
		l1.592-1.596c0.338-0.096,0.808-0.328,1.413-0.689c0.603-0.363,1.629-0.834,3.078-1.414l9.487-7.252
		c1.302-1.303,2.292-1.957,2.968-1.957c0.724,0,1.086,0.459,1.086,1.377c0,1.064-0.206,1.947-0.616,2.646
		c-0.412,0.703-0.787,1.549-1.125,2.539c-0.339,0.992-0.737,1.68-1.196,2.066c-0.459,0.387-0.833,0.811-1.124,1.27
		s-1.077,1.123-2.356,1.994c-1.282,0.869-2.37,1.752-3.263,2.646c-0.895,0.895-1.631,1.535-2.211,1.92l-3.117,2.25l-0.435,0.725
		c-0.097,0.098-0.543,0.303-1.341,0.617c-0.797,0.314-1.511,0.713-2.14,1.197l-1.304,0.723c-0.29,0.193-0.761,0.316-1.413,0.363
		c-0.653,0.049-1.222,0.326-1.705,0.834c-0.483,0.508-0.87,0.762-1.16,0.762l-1.088-0.145l-1.448,0.434
		c-0.823,0-1.826-0.494-3.01-1.486c-1.185-0.99-1.776-2.041-1.776-3.154v-0.436l0.145-1.014c0-0.193-0.145-0.689-0.435-1.488
		c-0.29-0.797-0.435-1.244-0.435-1.342l0.145-1.012l-0.145-0.438c0-1.305,0.096-2.127,0.29-2.465
		c0.192-0.338,0.337-0.811,0.435-1.414c0.096-0.604,0.192-1.1,0.29-1.486l0.362-1.813c0.192-0.58,0.435-0.967,0.725-1.16
		c0.096-0.387,0.29-1.041,0.58-1.957l0.29-1.309l0.725-1.012c0.386-0.389,0.616-0.908,0.688-1.561
		c0.073-0.652,0.327-1.34,0.762-2.068c0.435-0.723,0.652-1.16,0.652-1.303c0-0.58-0.29-0.869-0.87-0.869
		c-0.194,0-0.798,0.385-1.813,1.16l-1.307-0.438c-0.097,0-0.362,0.242-0.797,0.727c0,0.191-0.218,0.34-0.653,0.434
		c-0.435,0.098-0.846,0.461-1.233,1.088l-0.581,0.146l-0.942-0.436h-0.29c-0.483,0-0.773,0.533-0.87,1.596
		c-0.532,0.773-1.234,1.279-2.104,1.523l-1.595,0.432c-0.532,0.195-0.918,0.631-1.162,1.309c-0.242,0.676-0.725,1.293-1.45,1.848
		c-0.725,0.557-1.209,0.834-1.45,0.834c-1.354,0-2.031-0.75-2.031-2.248l0.581-3.408L7.202,365.232z M38.527,328.977l-0.435-2.828
		v-0.434c0-2.271,0.773-3.529,2.32-3.771c0.338-0.049,1.353-0.363,3.045-0.943c0.87,0.195,1.777,0.957,2.719,2.283
		c0.944,1.332,1.415,2.504,1.415,3.518c0,0.1-0.073,0.314-0.218,0.654s-0.242,0.979-0.29,1.92c-0.049,0.943-0.52,1.766-1.414,2.465
		c-0.896,0.701-1.85,1.053-2.865,1.053c-0.677,0-1.535-0.473-2.575-1.414C39.191,330.535,38.623,329.701,38.527,328.977z"/>
	<path fill="#4D4D4D" d="M107.301,371.613l1.157-1.014c0.723,0,1.155-0.328,1.3-0.979c0.145-0.654,0.663-1.174,1.555-1.559
		c0.892-0.389,1.724-1.174,2.495-2.357c0.771-1.186,1.565-1.777,2.385-1.777c0.289,0,0.627,0.24,1.012,0.725
		c0.385,0.484,0.579,0.871,0.579,1.16c0,1.596-0.484,3.24-1.45,4.932l-0.289,2.029l-0.507,0.943
		c-0.725,0.387-1.196,0.799-1.414,1.232c-0.218,0.436-0.785,0.969-1.704,1.596l-0.725,1.016c-1.063,0.338-1.776,0.895-2.139,1.666
		c-0.362,0.775-0.869,1.209-1.521,1.309c-0.653,0.096-1.366,0.58-2.139,1.449c-0.483,0.24-1.063,0.459-1.74,0.652l-0.145,0.725
		c-0.483,0.484-1.245,0.869-2.284,1.16c-1.039,0.289-1.812,0.568-2.319,0.834c-0.508,0.268-0.858,0.4-1.05,0.4
		c-0.919,0-1.766-0.182-2.538-0.547c-0.773-0.361-1.571-0.59-2.392-0.688c-0.29-0.291-0.46-0.605-0.507-0.943
		c-0.049-0.338-0.29-0.785-0.725-1.34c-0.435-0.557-0.652-1.318-0.652-2.283l0.29-1.379c0-0.193-0.122-0.436-0.362-0.727
		c-0.243-0.289-0.363-0.531-0.363-0.725c0-0.191,0.047-0.336,0.145-0.436c0.096-0.096,0.145-0.24,0.145-0.434
		c0-0.242-0.049-0.51-0.145-0.799c-0.098-0.291-0.145-0.531-0.145-0.725l0.435-3.553c0-0.291-0.098-0.436-0.29-0.436
		c-0.194,0-0.544,0.242-1.052,0.725c-0.508,0.484-1.1,0.725-1.776,0.725c-0.388,0.291-0.702,0.896-0.943,1.813
		c-0.388,0.484-0.87,0.92-1.45,1.307l-0.29,0.434c-0.098,0.34-0.461,0.617-1.088,0.836c-0.629,0.217-1.064,0.496-1.305,0.834
		l-0.725,0.725l-1.378-0.145c-0.098,0.098-0.363,0.52-0.798,1.268c-0.435,0.75-0.992,1.367-1.668,1.852l-5.512,4.492
		c-0.58,0.389-1.427,0.871-2.538,1.451l-0.435,0.438c-3.869,2.561-6.601,3.842-8.196,3.842c-1.306,0-2.829-0.361-4.569-1.09
		c-1.74-0.723-2.683-1.592-2.828-2.609l-0.725-2.973c-0.435-0.676-0.653-1.619-0.653-2.828c0-0.58,0.048-0.967,0.145-1.16v-0.434
		l-0.145-2.395c0-0.58,0.459-0.869,1.378-0.869l-0.145-1.957c0-0.193,0.423-0.957,1.27-2.285c0.844-1.328,1.413-2.09,1.703-2.285
		l0.725-0.941c-0.048-0.58,0.29-1.197,1.017-1.85c0.725-0.652,1.307-1.316,1.743-1.994c0.435-0.676,1.258-1.426,2.468-2.246
		l2.178-2.178c1.694-1.691,3.533-3.043,5.518-4.061c0.29-0.094,0.882-0.58,1.777-1.451c0.896-0.869,1.913-1.51,3.051-1.92
		s2.25-0.932,3.339-1.561c1.088-0.627,1.948-0.941,2.579-0.941h0.58c0.193,0,1.476-0.602,3.848-1.813h0.436
		c0.192,0,0.653,0.193,1.379,0.58h0.145l1.162-0.58c0.193-0.098,0.435-0.146,0.725-0.146c3.001,0,4.647,2.08,4.938,6.238
		c0.096,0.871,0.338,1.303,0.727,1.303c0.482,0,1.172-0.879,2.067-2.645c0.896-1.766,2.794-2.646,5.696-2.646
		c2.079,0,3.118,1.328,3.118,3.988c0,3.141-1.402,6.115-4.206,8.918c-0.193,0.389-0.338,0.824-0.435,1.305l-1.016,2.973v0.146
		c0,0.291-0.206,0.689-0.616,1.195c-0.412,0.51-0.617,0.957-0.617,1.342l0.145,1.814l-0.29,2.029c0,0.918,0.169,1.523,0.506,1.813
		c1.542-0.387,2.663-1.027,3.362-1.922c0.699-0.893,1.193-1.389,1.482-1.486l0.722-0.291
		C106.216,372.703,106.723,372.098,107.301,371.613z M83.223,371.613c0.193-1.061,0.786-1.873,1.777-2.428s1.583-1.123,1.777-1.703
		c0.917-0.678,2.236-1.889,3.952-3.629c1.717-1.74,2.576-2.801,2.576-3.189c0-0.143-0.098-0.217-0.29-0.217h-0.145l-0.58,0.363
		l-1.305-0.146l-1.379,0.146l-1.015-0.508l-0.942,0.145l-1.451-0.291c-0.774,0-1.439,0.158-1.995,0.473
		c-0.555,0.314-1.62,0.664-3.191,1.053c-1.572,0.385-2.985,1.049-4.243,1.992c-1.258,0.941-2.175,1.414-2.755,1.414
		c-0.339,0.725-1.476,1.766-3.408,3.117c-1.163,0.389-1.912,1.234-2.25,2.539c-1.257,1.016-1.886,1.596-1.886,1.74l-0.507,1.232
		c-0.387,0.338-0.87,0.615-1.45,0.834c-0.58,0.217-0.918,0.727-1.015,1.521c-0.097,0.799-0.423,1.525-0.979,2.176
		c-0.557,0.654-0.834,1.174-0.834,1.559c0,2.369,0.459,3.555,1.378,3.555c0.387,0,1.197-0.254,2.43-0.762
		c1.232-0.508,1.945-0.857,2.139-1.053c0.193-0.191,0.58-0.385,1.16-0.58l1.379-0.723c0.192-0.193,0.41-0.314,0.653-0.363
		c0.241-0.047,0.482-0.205,0.725-0.473c0.241-0.266,0.676-0.555,1.305-0.869c0.627-0.313,1.111-0.736,1.45-1.27
		c0.821-0.48,2.151-1.232,3.989-2.246l1.523-1.16c1.062-0.484,1.715-0.895,1.958-1.234
		C82.013,372.293,82.498,371.953,83.223,371.613z"/>
	<path fill="#4D4D4D" d="M145.507,357.402l2.033-0.941c0.676-0.438,1.329-1.064,1.959-1.889l2.54-1.811
		c1.45-0.967,2.394-1.451,2.83-1.451l1.161,0.436c0.096,0,0.399-0.303,0.907-0.908c0.508-0.604,1.101-0.906,1.778-0.906
		c0.87,0,2.056,0.654,3.556,1.959c1.499,1.305,2.25,2.465,2.25,3.48l-0.29,2.465c0,0.389,0.192,1.477,0.58,3.266v0.58l-0.29,1.74
		l0.29,1.811l-0.798,3.553c0,0.92,0.313,1.379,0.943,1.379c0.821-0.771,1.522-1.232,2.103-1.379l1.015-1.014
		c0.387-0.387,0.677-0.58,0.872-0.58c0.193,0,0.446-0.23,0.761-0.689c0.314-0.457,0.713-0.785,1.197-0.979
		c0.483-0.191,0.821-0.531,1.015-1.016c2.708-2.949,4.787-4.641,6.237-5.076c0.193,0,0.519-0.24,0.979-0.725
		c0.458-0.482,0.833-0.771,1.124-0.871l1.596-1.232l0.652,0.289h0.145c0.096,0,0.483-0.24,1.161-0.723
		c0.676-0.484,1.16-0.727,1.45-0.727c1.836,0,3.347,0.617,4.532,1.85c1.185,1.232,1.777,2.188,1.777,2.863l-0.363,1.668l0.508,2.248
		v1.451l-0.363,1.521c0,0.289,0.206,0.703,0.617,1.234c0.409,0.533,0.616,0.895,0.616,1.086c-0.58,0.629-0.87,1.041-0.87,1.234
		l0.145,1.305l-0.363,3.988c0,0.338,0.314,0.896,0.942,1.668c0.289-0.191,0.7-0.363,1.229-0.508c0.53-0.146,0.939-0.301,1.229-0.471
		c0.288-0.17,0.433-0.266,0.433-0.291c0-0.023-0.024-0.035-0.072-0.035c0.097,0,0.386,0.098,0.868,0.289h0.29
		c0.385,0,0.603-0.373,0.65-1.123s0.53-1.367,1.447-1.85l1.735,0.145c0.096-0.098,0.301-0.494,0.616-1.195
		c0.313-0.701,1.326-1.74,3.037-3.119c1.711-1.377,3.025-2.068,3.941-2.068c0.772,0,1.158,0.34,1.158,1.018
		c0,0.193-0.097,0.701-0.29,1.521c0.385,0.68,0.579,1.26,0.579,1.74c0,0.92-0.786,1.91-2.354,2.973
		c-1.57,1.064-2.765,2.395-3.585,3.99l-0.289,0.289l-1.449-0.145c-0.098,0-0.327,0.375-0.688,1.123
		c-0.362,0.75-0.784,1.172-1.268,1.271c-0.483,0.096-0.82,0.24-1.013,0.432l-1.522,0.943c-0.29,0.195-1.243,1.174-2.861,2.938
		c-1.618,1.766-2.981,2.648-4.091,2.648c-0.483,0-1.352-0.256-2.607-0.762c-1.256-0.51-2.1-1.027-2.535-1.559
		c-0.435-0.533-1.051-1.137-1.847-1.814c-0.796-0.676-1.195-1.957-1.195-3.844c0-0.096,0.133-0.264,0.398-0.508
		c0.265-0.24,0.398-0.434,0.398-0.58c-1.111-1.449-1.667-2.488-1.667-3.117c0-0.289,0.048-0.604,0.145-0.943
		c0.097-0.336,0.145-0.652,0.145-0.943l-0.145-2.537l0.29-1.305l-0.145-0.799l0.435-3.697c0-0.58-0.338-0.869-1.016-0.869
		c-0.194,0-0.459,0.193-0.799,0.58c-0.339,0.387-0.763,0.688-1.271,0.906c-0.508,0.217-1.053,0.906-1.633,2.066
		c-0.871,0.482-1.465,0.955-1.779,1.414s-0.569,0.688-0.761,0.688c-0.098,0-0.292-0.047-0.582-0.145
		c-0.582,0.389-0.872,0.824-0.872,1.305v0.291l0.145,0.58c0,0.436-0.363,0.846-1.088,1.232c-0.726,0.387-1.621,1.379-2.685,2.973
		c-0.485,0-0.824,0.049-1.016,0.146l-0.871,1.74c-0.485,0.289-0.945,0.799-1.38,1.521l-0.872,0.438
		c-0.338,0.627-0.677,1.16-1.017,1.592l-0.435,0.799c-2.081,2.465-3.534,3.699-4.356,3.699c-0.823,0-1.814-1.088-2.977-3.264
		c-1.161-2.176-1.741-3.867-1.741-5.076l0.29-2.682c0-0.098-0.193-0.484-0.58-1.16v-0.291c0-0.098,0.193-0.652,0.58-1.668v-2.176
		c0-0.096-0.048-0.24-0.145-0.436v-0.361c0-0.098,0.193-0.484,0.58-1.16l-0.435-2.104l0.29-1.16l-0.145-2.537l0.29-2.248
		c0-0.146-0.134-0.398-0.398-0.762c-0.265-0.361-0.446-0.545-0.543-0.545c-0.338,0-1.34,0.557-3.006,1.668
		c-1.666,1.113-2.788,1.982-3.367,2.609c-0.58,0.631-1.352,1.379-2.318,2.25c-1.013,0.484-1.714,1.715-2.099,3.699
		c0,0.096-0.098,0.143-0.29,0.143c0-0.096-0.145-0.191-0.435-0.289h-0.289c-0.243,0-0.991,1.041-2.246,3.117l-0.289,0.291
		l-1.376-0.291c-1.159,0-1.737,1.232-1.737,3.699c0,0.434-0.303,0.725-0.906,0.871c-0.604,0.143-1.076,0.555-1.413,1.232
		c-0.338,0.678-0.797,1.379-1.376,2.102c-1.117,0.484-1.747,0.848-1.892,1.088c0,0.049-0.534,0.775-1.602,2.176
		c-1.067,1.402-1.65,2.225-1.748,2.465c-0.097,0.244-0.425,0.521-0.982,0.834c-0.559,0.314-0.837,0.592-0.837,0.836l0.218,1.23
		c0,0.775-0.751,1.16-2.255,1.16c-2.906,0-4.358-3.02-4.358-9.063c0-0.678,0.301-1.438,0.907-2.285
		c0.604-0.846,1.196-1.873,1.776-3.082c0.918-0.918,2.006-2.248,3.263-3.988c1.256-1.74,2.199-2.924,2.828-3.555l0.943-1.521
		c0-0.58,0.121-1.014,0.362-1.305c0.241-0.289,0.363-0.654,0.363-1.086c0-0.775-0.194-1.16-0.58-1.16
		c-0.919,0-1.645,0.229-2.175,0.688c-0.532,0.459-1.124,0.787-1.776,0.979c-0.652,0.193-1.076,0.533-1.269,1.016
		c-0.677,0.289-1.39,0.906-2.138,1.848c-0.75,0.943-1.244,1.537-1.486,1.777c-0.241,0.244-0.47,0.568-0.687,0.979
		c-0.218,0.412-0.496,0.641-0.833,0.689c-0.337,0.049-0.65,0.217-0.94,0.508c-0.29,0.289-0.749,0.436-1.376,0.436
		c-0.435,0-0.833-0.447-1.196-1.342c-0.362-0.893-0.542-1.439-0.542-1.633c0-3.527,2.347-6.572,7.04-9.135
		c0.628-0.338,1.125-0.678,1.487-1.018c0.363-0.336,0.737-0.602,1.125-0.797l0.29-0.506c0.386-0.58,1.837-1.4,4.354-2.467h1.016
		l4.862-1.232c2.08-0.484,3.121,1.861,3.121,7.033l-0.146,1.307l0.291,0.58c0.821-0.773,1.656-1.463,2.502-2.066
		c0.847-0.605,1.463-1.148,1.851-1.633S144.395,357.887,145.507,357.402z"/>
	<path fill="#4D4D4D" d="M262.132,346.08c1.158-5.9,10.417-13.584,14.419-14.309c3.674-0.664,9.413-2.441,9.413-0.125
		c0,1.258,0.596,3.662-1.046,4.656c-3.536,2.141-14.198,6.324-13.421,8.734c1.137,3.531,2.875,12.365,2.875,13.814
		c0,0.58,0.169,1.318,0.507,2.213c0.339,0.895,0.557,1.582,0.654,2.066c-0.387,0.822-0.58,1.281-0.58,1.377l0.145,2.975l-0.87,2.391
		v1.74c-0.581,0.969-0.871,1.572-0.871,1.813c0,0.291,0.097,0.58,0.29,0.871c2.27-0.967,3.646-1.752,4.129-2.355
		c0.483-0.605,0.953-0.979,1.412-1.125c0.458-0.145,1.218-0.773,2.28-1.885l1.376-0.727c0.483-0.58,0.893-1.1,1.23-1.559
		c0.338-0.457,0.735-0.785,1.194-0.979c0.458-0.191,1.001-0.531,1.628-1.016c0.628-0.484,1.545-1.039,2.752-1.668l0.724-0.871
		c0.723-0.82,1.579-1.473,2.57-1.957c0.989-0.48,1.532-0.725,1.628-0.725c0.338,0,0.688,0.447,1.051,1.342
		c0.361,0.895,0.542,1.777,0.542,2.648c0,0.82-0.471,1.629-1.413,2.428c-0.943,0.797-1.583,1.389-1.921,1.775
		c-0.337,0.389-1.11,0.727-2.316,1.018c-0.098,0.047-0.895,1.039-2.391,2.971l-1.449,0.871l-0.724,0.941
		c-0.097,0.193-0.749,0.389-1.956,0.58c-0.048,0-0.157,0.244-0.326,0.727c-0.171,0.482-0.689,0.822-1.559,1.014
		c-1.737,1.598-2.632,2.492-2.679,2.684l-1.521,0.291c-0.29,0.918-0.532,1.475-0.724,1.666c-1.16,0.291-1.812,0.775-1.957,1.451
		c-0.145,0.098-0.386,0.193-0.724,0.289l-0.29,0.219c-1.11,0.871-2.197,1.404-3.26,1.596l-1.665,0.436l-0.58,0.869
		c0,0.244-0.594,0.557-1.776,0.941c-1.183,0.389-2.064,0.871-2.643,1.451l-1.232,0.943c-1.497,0.58-2.438,1.113-2.825,1.596h-1.015
		c-0.676,0-1.738,0.496-3.187,1.486c-1.449,0.99-2.608,1.484-3.478,1.484c-2.8,0-4.722-0.348-5.759-1.049
		c-1.037-0.701-1.895-1.57-2.57-2.611c-0.675-1.039-1.292-1.873-1.848-2.502c-0.555-0.627-0.833-1.135-0.833-1.521
		c0-0.338,0.23-0.678,0.688-1.018c0.459-0.336,0.955-1.025,1.485-2.064c0.531-1.039,1.884-1.705,4.058-1.996
		c0.096,0,0.446-0.143,1.05-0.432c0.603-0.291,1.098-0.438,1.484-0.438c0.483,0,1.086,0.438,1.812,1.307
		c0,0.096,0.097,0.143,0.29,0.143l1.159-0.143c0.53,0.387,0.893,0.58,1.087,0.58c1.158,0,2.39-0.58,3.695-1.74l0.289-0.146h0.58
		c0.145,0,0.386-0.408,0.723-1.232l1.232-2.539l2.536-3.262v-0.725c0-0.146,0.145-0.58,0.435-1.307v-1.088
		c0-0.434,0.289-0.711,0.869-0.834c0.579-0.119,0.869-0.422,0.869-0.906l-0.145-0.58c-0.386-0.531-0.579-0.941-0.579-1.232
		l0.724-1.449l-0.145-1.521l0.29-0.58c-0.194-0.68-0.29-1.064-0.29-1.16l0.29-1.814c0-0.049-0.134-0.506-0.4-1.377
		c-0.266-0.869-0.471-1.307-0.616-1.307C264.724,356.604,261.89,347.313,262.132,346.08z"/>
	<path fill="#4D4D4D" d="M300.009,355.152l1.087-0.289l0.435-0.941c2.369-1.402,4.061-2.732,5.077-3.99
		c0.097-0.191,0.314-0.383,0.652-0.58c0.337-0.191,0.701-0.531,1.089-1.014c1.787-1.789,3.914-2.684,6.381-2.684
		c2.901,0,4.447,1.766,4.641,5.295l0.433,1.086c0.388,0.68,0.931,2.055,1.634,4.135c0.698,2.08,1.05,3.357,1.05,3.842
		c0,1.305-0.41,2.611-1.233,3.916c-0.676,0.34-2.296,2.15-4.857,5.438l-0.725,0.508c-0.386,0.871-0.895,1.74-1.522,2.611
		c-0.968,0.34-1.45,0.701-1.45,1.088v1.305c0,0.098-0.11,0.289-0.327,0.58c-0.216,0.289-0.519,0.848-0.907,1.668l-0.58,0.871
		c-0.192,0.193-0.388,0.592-0.58,1.195c-0.192,0.605-0.47,1.148-0.833,1.633c-0.364,0.482-0.543,0.871-0.543,1.16
		c0,0.723,0.941,1.086,2.827,1.086c0.098,0,0.459-0.145,1.086-0.434l1.017,0.289c0.096,0,0.337-0.156,0.723-0.471
		c0.388-0.313,0.98-0.568,1.777-0.76c0.798-0.195,1.499-0.484,2.104-0.871c0.604-0.389,1.328-0.727,2.173-1.018
		c0.846-0.289,1.654-0.76,2.431-1.412c0.772-0.652,1.532-1.125,2.284-1.414c0.747-0.291,1.45-0.738,2.104-1.342
		c0.651-0.604,1.389-1.172,2.21-1.703s2.127-1.691,3.916-3.482c1.158-0.916,1.957-1.426,2.392-1.521
		c0.097,0,0.519-0.641,1.269-1.922s1.607-1.922,2.574-1.922c1.017,0,1.523,0.484,1.523,1.451c0,0.533-0.243,1.039-0.726,1.523v0.432
		l0.146,1.162c0.096,0.146,0.145,0.363,0.145,0.652c0,0.195-0.182,0.484-0.543,0.871c-0.363,0.387-0.617,0.881-0.762,1.486
		c-0.146,0.605-0.604,1.004-1.377,1.197c-0.29,1.063-0.664,1.666-1.123,1.813c-0.46,0.145-1.102,0.629-1.923,1.449
		c-0.82,0.824-1.98,1.789-3.48,2.9c-1.497,1.113-2.524,1.971-3.08,2.574s-0.932,0.906-1.123,0.906c-0.099,0-0.29-0.096-0.58-0.289
		s-0.484-0.291-0.58-0.291c-0.29,0-0.482,0.34-0.58,1.016l-0.29,0.725c-0.63,0.389-0.991,0.58-1.087,0.58l-0.438-0.145h-0.29
		c-0.58,0-0.87,0.217-0.87,0.654l0.438,0.723v0.146c0,0.676-0.389,1.014-1.16,1.014c-0.533,0-2.08,0.896-4.641,2.684l-2.104,0.436
		l-1.736,0.941c-0.58-0.338-0.944-0.506-1.089-0.506l-1.16,0.363l-2.102,0.143c-0.049,0-0.931-0.482-2.648-1.451
		c-1.716-0.965-2.743-1.932-3.081-2.9c-0.339-0.965-0.774-1.943-1.305-2.934c-0.533-0.992-0.797-1.68-0.797-2.068
		c0-2.32,0.192-3.975,0.58-4.967c0.386-0.99,0.627-1.729,0.725-2.213c0.096-0.482,0.374-1,0.833-1.559
		c0.458-0.555,0.834-1.461,1.125-2.719c1.401-2.803,2.367-4.52,2.9-5.146c0.532-0.629,0.942-1.402,1.232-2.32l0.942-1.309
		c0.098-0.094,0.241-0.469,0.437-1.123c0.192-0.65,0.433-1.025,0.723-1.123c0.388-0.676,0.58-1.111,0.58-1.305
		c0-1.402-0.629-2.102-1.883-2.102c-0.245,0-0.509,0.252-0.799,0.76s-0.956,1.004-1.995,1.486c-1.04,0.484-1.68,0.846-1.921,1.086
		c-0.243,0.244-0.763,0.547-1.561,0.908c-0.798,0.363-1.486,0.932-2.066,1.703l-1.233,0.58c-0.388,0.92-0.727,1.428-1.017,1.523
		c-0.29,0.098-1.185,0.34-2.683,0.725c-0.097,0.049-0.338,0.34-0.726,0.871c-0.387,0.533-0.943,0.799-1.668,0.799
		c-0.58,0.58-1.161,1.256-1.741,2.029c-0.193,0-0.701,0.193-1.523,0.58l-1.451,0.361c-0.387,0.291-0.81,0.75-1.269,1.379
		c-0.46,0.627-1.318,0.941-2.576,0.941c-0.725,0-1.087-0.58-1.087-1.74c0-2.367,0.834-4.252,2.501-5.654
		c1.669-1.402,2.888-2.152,3.663-2.248c0.774-0.098,1.257-0.389,1.451-0.869c0.193-0.484,0.664-0.883,1.415-1.197
		c0.749-0.314,1.619-1.016,2.61-2.104c0.99-1.088,2.066-1.824,3.227-2.211L300.009,355.152z"/>
	<path fill="#4D4D4D" d="M339.236,365.232l1.162-1.014h0.435c0.337,0,0.846-0.365,1.524-1.088l0.727-0.289
		c0.967-1.451,1.814-2.297,2.539-2.539l1.162-0.871c0.194-0.193,0.472-0.361,0.836-0.508c0.361-0.143,0.943-0.615,1.742-1.414
		c0.797-0.797,1.438-1.197,1.924-1.197c0.484,0,0.87,0.049,1.16,0.148c0.29-0.58,0.87-1.148,1.742-1.707
		c0.87-0.553,1.573-1.219,2.106-1.992l0.943-0.436c0.774-0.387,1.463-0.883,2.067-1.488c0.604-0.604,1.391-0.906,2.361-0.906
		c1.401,0,2.865,0.715,4.39,2.141c1.521,1.426,2.283,2.791,2.283,4.098l-1.233,5.654c-0.821,4.158-1.74,6.334-2.756,6.527
		l-0.29,1.521c-0.676,0.484-1.015,0.871-1.015,1.16l0.435,1.74c0,0.244-0.266,0.605-0.797,1.09c-0.098,0-0.145,0.143-0.145,0.434
		v2.973c0,0.533-0.339,0.969-1.016,1.307c0.097,0.098,0.241,0.193,0.436,0.289c0.29-0.289,0.941-0.436,1.957-0.436l1.16,0.146
		l1.593-1.596c0.337-0.096,0.807-0.328,1.412-0.689c0.603-0.363,1.628-0.834,3.078-1.414l9.485-7.252
		c1.304-1.303,2.292-1.957,2.97-1.957c0.724,0,1.085,0.459,1.085,1.377c0,1.064-0.204,1.947-0.615,2.646
		c-0.412,0.703-0.786,1.549-1.125,2.539c-0.337,0.992-0.737,1.68-1.195,2.066c-0.459,0.387-0.833,0.811-1.123,1.27
		s-1.076,1.123-2.357,1.994c-1.28,0.869-2.369,1.752-3.262,2.646c-0.895,0.895-1.63,1.535-2.21,1.92l-3.117,2.25l-0.436,0.725
		c-0.098,0.098-0.545,0.303-1.342,0.617c-0.799,0.314-1.512,0.713-2.139,1.197l-1.305,0.723c-0.29,0.193-0.762,0.316-1.414,0.363
		c-0.653,0.049-1.221,0.326-1.703,0.834c-0.484,0.508-0.87,0.762-1.16,0.762l-1.089-0.145l-1.448,0.434
		c-0.823,0-1.826-0.494-3.009-1.486c-1.187-0.99-1.777-2.041-1.777-3.154v-0.436l0.146-1.014c0-0.193-0.146-0.689-0.436-1.488
		c-0.29-0.797-0.435-1.244-0.435-1.342l0.145-1.012l-0.145-0.438c0-1.305,0.096-2.127,0.29-2.465
		c0.191-0.338,0.337-0.811,0.435-1.414c0.097-0.604,0.192-1.1,0.29-1.486l0.362-1.813c0.193-0.58,0.435-0.967,0.725-1.16
		c0.096-0.387,0.29-1.041,0.58-1.957l0.29-1.309l0.726-1.012c0.386-0.389,0.616-0.908,0.69-1.561c0.071-0.652,0.324-1.34,0.76-2.068
		c0.435-0.723,0.653-1.16,0.653-1.303c0-0.58-0.29-0.869-0.87-0.869c-0.194,0-0.799,0.385-1.813,1.16l-1.306-0.438
		c-0.098,0-0.363,0.242-0.799,0.727c0,0.191-0.216,0.34-0.651,0.434c-0.435,0.098-0.848,0.461-1.233,1.088l-0.58,0.146l-0.944-0.436
		h-0.29c-0.483,0-0.773,0.533-0.87,1.596c-0.533,0.773-1.233,1.279-2.104,1.523l-1.596,0.432c-0.533,0.195-0.919,0.631-1.16,1.309
		c-0.243,0.676-0.725,1.293-1.45,1.848c-0.725,0.557-1.209,0.834-1.45,0.834c-1.354,0-2.032-0.75-2.032-2.248l0.582-3.408
		L339.236,365.232z M370.562,328.977l-0.436-2.828v-0.434c0-2.271,0.772-3.529,2.32-3.771c0.337-0.049,1.353-0.363,3.046-0.943
		c0.87,0.195,1.777,0.957,2.719,2.283c0.943,1.332,1.415,2.504,1.415,3.518c0,0.1-0.073,0.314-0.218,0.654
		c-0.146,0.34-0.243,0.979-0.29,1.92c-0.05,0.943-0.521,1.766-1.414,2.465c-0.895,0.701-1.849,1.053-2.865,1.053
		c-0.677,0-1.534-0.473-2.574-1.414C371.226,330.535,370.657,329.701,370.562,328.977z"/>
	<path fill="#4D4D4D" d="M387.252,383.361l-0.58-3.697c0-0.289,0.145-0.75,0.435-1.379c0.29,0,0.531-0.096,0.726-0.289l-0.436-1.307
		c0-1.691,0.472-3.152,1.416-4.387c0.943-1.232,1.464-2.066,1.561-2.5c0.096-0.438,0.786-1.852,2.068-4.242
		c1.281-2.395,2.237-3.928,2.866-4.607l0.437-0.941l0.581-0.145c1.112-1.789,2.686-3.406,4.718-4.857
		c0.677-1.064,1.499-1.934,2.468-2.611c0.968-0.678,1.622-1.16,1.959-1.449c0.339-0.291,0.848-0.484,1.525-0.58l0.29-0.146
		c1.403-1.402,2.612-2.104,3.63-2.104c0.339-0.336,1.016-0.725,2.032-1.16h0.799c0.29,0,0.58-0.096,0.87-0.289
		s0.58-0.291,0.872-0.291c0.192,0,0.701,0.195,1.524,0.58c0.773-0.773,1.403-1.16,1.887-1.16c1.016,0,2.045,0.387,3.085,1.16
		c1.039,0.775,1.705,1.719,1.995,2.83s0.533,1.766,0.728,1.957c0.193,0.193,0.388,0.436,0.582,0.725
		c0.386,0,0.893-0.893,1.523-2.682l0.87-1.16c1.313-1.691,2.212-3.676,2.7-5.949c0.099-0.094,0.243-0.494,0.438-1.193
		c0.194-0.701,0.707-1.898,1.534-3.59c1.409-2.029,2.406-4.109,2.99-6.238l0.876-1.303c0.584-0.389,0.901-0.809,0.95-1.27
		c0.047-0.459,0.192-0.883,0.435-1.27c0.241-0.387,0.52-0.857,0.834-1.414c0.314-0.555,0.567-0.928,0.762-1.125
		c0.192-0.191,0.482-0.857,0.87-1.994c0.386-1.135,0.858-1.775,1.413-1.92c0.556-0.146,1.126-0.412,1.706-0.799l0.145-0.508
		l-0.29-1.014c0-0.58,0.64-1.598,1.921-3.047c1.28-1.451,2.199-2.645,2.755-3.59c0.556-0.941,1.499-2.391,2.829-4.35
		c1.328-1.957,2.284-3.154,2.864-3.59l1.668-1.74c0.772-1.111,1.859-1.666,3.263-1.666c1.062,0,2.175,0.568,3.335,1.703
		c1.16,1.137,1.74,2.26,1.74,3.371c0,0.387-0.265,1.283-0.796,2.684l-0.146,0.869c0,0.775-0.268,1.691-0.799,2.756
		c-0.533,1.064-0.846,1.887-0.941,2.467l-4.061,9.934c-0.484,0.193-0.774,0.34-0.87,0.434c-1.259,2.758-2.249,4.258-2.974,4.498
		v1.451c0,0.529-0.34,0.918-1.016,1.16l-0.29,0.143c-0.436,1.838-0.99,3.168-1.667,3.988c-0.678,0.824-1.174,1.656-1.487,2.502
		c-0.314,0.846-0.811,1.318-1.486,1.414c-0.679,0.098-1.016,1.039-1.016,2.826c-0.193,0.969-0.678,1.451-1.45,1.451
		c-0.725,0-1.185,0.629-1.377,1.887c-0.193,1.258-1.138,1.934-2.828,2.031c-0.484,0.289-0.774,0.629-0.871,1.014l0.58,1.813
		c0,0.291-0.895,1.426-2.682,3.408l-0.58,1.887c-0.919,0.34-1.669,2.826-2.249,7.469l-0.87,5.004l0.146,1.957l-0.29,1.014
		l0.87,2.973l-0.146,1.67c0,0.773,0.29,1.16,0.87,1.16c0.29,0,0.944-0.436,1.959-1.307l1.014-0.434
		c3.039-1.547,4.918-3.047,5.644-4.496c0.191-0.193,0.543-0.387,1.05-0.58s0.88-0.461,1.121-0.797
		c0.241-0.34,0.434-0.58,0.578-0.727c2.943-1.934,4.85-3.625,5.718-5.074c0.868-1.451,1.761-2.32,2.678-2.611l0.578-0.58
		c0.58-0.484,1.062-0.727,1.448-0.727c0.818,0,1.229,0.242,1.229,0.727l-0.578,2.031c0.482,1.303,0.723,2.055,0.723,2.246
		c0,1.693-0.749,2.73-2.249,3.117c-0.629,0.629-1.125,1.354-1.486,2.178c-0.364,0.82-1.15,1.33-2.359,1.521
		c-0.821,1.16-1.571,1.922-2.249,2.283c-0.676,0.363-1.016,0.738-1.016,1.125v0.652c-0.386,0.58-0.725,0.969-1.015,1.16
		l-1.379-0.289c-0.194,0.58-0.629,1.377-1.306,2.391c-0.24-0.191-0.461-0.289-0.653-0.289c-0.678,0-1.233,0.412-1.669,1.232
		c-0.435,0.824-0.749,1.234-0.941,1.234h-1.669c-0.243,0.143-0.629,0.459-1.16,0.941c-0.533,0.484-1.428,0.725-2.684,0.725
		l-2.251,0.436c-2.127,0-4.085-0.688-5.877-2.066c-1.789-1.377-2.745-2.633-2.865-3.771c-0.121-1.135-0.52-2.502-1.195-4.096
		l-0.145-2.973c-0.533-3.094-1.139-4.641-1.814-4.641l-0.145,0.943l-0.582,0.289c-0.291,1.498-0.774,2.248-1.451,2.248
		c-0.292,0.145-0.606,0.387-0.943,0.725l-0.438,0.289c-0.193,0.1-0.472,0.51-0.835,1.232c-0.361,0.727-1.366,1.74-3.013,3.047
		c-0.676,1.789-1.187,2.684-1.523,2.684l-0.873-0.58h-0.145c-0.389,0-0.703,0.566-0.943,1.703c-0.243,1.137-0.728,1.705-1.453,1.705
		c-0.193,0-0.375,0.324-0.543,0.979c-0.172,0.652-0.595,1.064-1.272,1.232c-0.676,0.168-1.283,0.832-1.813,1.992
		c-0.533,1.16-0.897,1.74-1.089,1.74c-0.099,0-0.243-0.047-0.436-0.143l-1.233,0.291c-0.243,0.336-0.584,0.895-1.02,1.666
		c-0.435,0.145-0.821,0.34-1.16,0.58c-1.499,1.451-3.484,2.176-5.952,2.176c-1.744,0-3.123-0.375-4.141-1.123
		c-1.017-0.75-1.621-1.391-1.813-1.922c-0.194-0.531-0.558-1.197-1.089-1.994C387.735,385.5,387.396,384.521,387.252,383.361z
		 M416.212,366.902l0.506-0.943c0.823-0.291,1.354-1.016,1.598-2.176c0.386-0.291,1.377-1.547,2.974-3.771
		c1.596-2.225,2.395-3.455,2.395-3.699c-0.484-0.482-1.04-0.723-1.669-0.723c-0.098,0-0.388,0.096-0.87,0.291
		c-0.484,0.191-0.98,0.338-1.487,0.432c-0.509,0.098-1.054,0.291-1.634,0.58l-1.812-0.289c-0.533,0-1.718,0.703-3.557,2.104
		l-1.669-0.291c-0.29,0-0.773,0.631-1.45,1.887l-3.699,2.971h-0.435c-0.679,0-1.138,0.605-1.379,1.814
		c-0.823,1.064-1.598,1.801-2.322,2.213c-0.726,0.41-1.234,1.002-1.524,1.775v0.943c-1.354,1.498-2.032,2.635-2.032,3.406
		c-1.015,0.969-1.679,2.008-1.993,3.119c-0.316,1.113-0.69,2.055-1.126,2.83c0.194,0.676,0.339,1.508,0.436,2.5
		c0.098,0.992,0.58,1.486,1.452,1.486c1.403,0,2.949-0.846,4.643-2.537c0.097-0.098,0.509-0.363,1.234-0.799
		c0.725-0.436,1.728-1.293,3.011-2.574c1.28-1.279,1.995-1.945,2.141-1.994c0.481-0.482,0.771-0.725,0.87-0.725l0.58-0.58
		c0-0.193,0.206-0.41,0.616-0.652c0.411-0.242,0.954-0.738,1.633-1.488c0.676-0.746,1.196-1.195,1.561-1.34
		c0.361-0.146,0.614-0.352,0.76-0.617c0.145-0.264,0.388-0.518,0.727-0.762c0.337-0.24,0.507-0.508,0.507-0.799l0.146-0.869
		L416.212,366.902z M441.372,337.459l-0.725,2.105c0.629-0.098,1.185-0.748,1.669-1.957c1.45-2.08,2.44-3.361,2.972-3.846
		c0.629,0,1.099-0.396,1.416-1.195c0.313-0.797,0.88-1.582,1.703-2.357c0-0.338,0.361-0.988,1.087-1.957
		c0.725-0.967,1.196-1.654,1.415-2.068c0.217-0.408,0.664-0.953,1.34-1.629c0.679-0.678,1.317-1.838,1.923-3.48
		c0.604-1.645,1.123-2.635,1.558-2.975c0.436-0.338,0.654-1.016,0.654-2.029c0-1.402-0.099-2.105-0.29-2.105
		c-0.436,0-0.762,0.281-0.979,0.836c-0.219,0.557-0.69,1.27-1.416,2.139l-2.465,4.135c-0.967,1.643-1.607,2.949-1.92,3.914
		c-0.317,0.967-0.679,1.535-1.089,1.705c-0.411,0.17-0.907,0.639-1.487,1.414l-1.015,1.014c-0.241,0.58-0.436,1.283-0.58,2.105
		l-0.652,0.58v1.375c0,0.631-0.363,1.197-1.089,1.705c-0.725,0.508-1.086,0.832-1.086,0.98L441.372,337.459z"/>
	<path fill="#4D4D4D" d="M453.308,363.928l0.584-0.797c1.263-0.289,2.063-0.773,2.402-1.449c0.145-0.34,1.36-1.598,3.642-3.771
		c2.281-2.178,3.544-3.338,3.787-3.48c1.542-2.805,2.479-4.906,2.818-6.311c0.578-0.289,0.866-0.627,0.866-1.014l0.578-1.16
		l0.651-0.146l0.288-0.289v-0.652c0-0.869,0.94-2.9,2.819-6.09c1.883-3.918,2.896-6.08,3.041-6.492
		c0.146-0.408,0.436-1.016,0.87-1.813c0.436-0.797,1.1-2.332,1.994-4.605c0.895-2.271,2.285-4.641,4.171-7.104
		c0.191-0.098,0.481-0.643,0.87-1.633c0.386-0.99,0.988-1.971,1.812-2.938l0.87-1.521c0.29-0.484,0.799-1.33,1.524-2.539
		c0.725-1.207,1.389-2.162,1.993-2.863s1.063-1.438,1.377-2.213c0.314-0.771,0.69-1.326,1.125-1.666
		c0.436-0.34,0.881-0.955,1.34-1.852c0.46-0.895,1.173-1.34,2.141-1.34c1.886,0,3.25,0.773,4.096,2.32s1.271,2.902,1.271,4.063
		c0,0.143-0.29,1.184-0.87,3.115l-1.089,6.527c-0.968,0.484-1.45,1.039-1.45,1.668c0,2.563-0.99,5.221-2.972,7.975
		c-0.194,0.197-0.352,0.824-0.472,1.887c-0.121,1.063-0.544,1.934-1.269,2.611c-0.726,0.676-1.379,1.813-1.959,3.406l-6.743,9.646
		l-0.58,0.58c-0.29,0.191-0.629,0.604-1.015,1.23l-1.16-0.361c-1.306,0-1.959,0.412-1.959,1.232c0,0.289,0.096,0.676,0.29,1.16
		v0.145c0,0.049-1.789,2.586-5.366,7.615c-0.193,0.291-0.533,1.232-1.015,2.826l-1.016,2.176c-1.015,1.404-1.728,2.768-2.139,4.098
		c-0.41,1.33-0.956,2.404-1.632,3.225c-0.968,2.178-1.45,3.314-1.45,3.41c0,0.289,0.145,0.436,0.435,0.436s0.979-0.727,2.067-2.176
		c1.087-1.451,1.981-2.416,2.683-2.9c0.7-0.482,1.293-1.16,1.778-2.031l0.726-0.508c0.194-0.094,0.604-0.385,1.235-0.871
		l0.726,0.148c0.388-0.291,0.629-0.629,0.727-1.018c0.097-0.385,0.241-0.674,0.438-0.871c1.258-0.143,2.045-0.602,2.359-1.377
		c0.314-0.771,0.69-1.16,1.125-1.16c0.389,0,0.897-0.445,1.526-1.342c0.629-0.893,1.514-1.619,2.651-2.174
		c1.138-0.557,1.985-1.051,2.543-1.488c0.556-0.434,1.681-0.951,3.376-1.559c1.695-0.602,2.833-0.904,3.413-0.904h0.436l0.582,0.143
		l1.091-0.143c1.693,0,3.387,0.469,5.08,1.414c1.691,0.941,2.416,2.406,2.175,4.387l-0.58,4.494l-0.796,3.555
		c-0.099,0.58-0.484,1.859-1.16,3.844c-0.679,1.98-1.016,3.117-1.016,3.406l-0.29,1.377l0.288,1.887l-0.143,1.523
		c0,0.482,0.238,0.725,0.721,0.725c0.192,0,0.723-0.436,1.591-1.305c0.529,0.098,1.034-0.193,1.518-0.871
		c0.48-0.676,1.132-1.379,1.951-2.102c0-0.193,0.313-0.377,0.939-0.545c0.625-0.168,1.493-0.736,2.603-1.705
		c0.191-0.434,1.132-1.363,2.818-2.791c1.686-1.426,3.301-2.525,4.843-3.299l0.434-0.58c0.819-0.822,1.564-1.232,2.24-1.232
		c0.675,0,1.012,0.361,1.012,1.088c0,0.482-0.121,0.99-0.363,1.523c-0.241,0.531-0.409,1.219-0.505,2.064
		c-0.099,0.848-0.58,2.066-1.448,3.662l-0.29,0.725c-0.339,0.824-0.748,1.307-1.231,1.451c-0.482,0.145-1.001,0.543-1.557,1.197
		c-0.556,0.65-1.701,1.268-3.439,1.848c-0.772,1.451-1.377,2.176-1.811,2.176l-1.303-0.58c-1.016,0.824-1.521,1.67-1.521,2.539
		c-1.255,1.063-2.004,1.766-2.243,2.102l-1.45-0.145c-0.386,0-0.578,0.533-0.578,1.596c0,0.098-0.496,0.422-1.485,0.979
		c-0.99,0.557-1.75,1.051-2.281,1.486s-1.665,0.654-3.403,0.654c-0.193,0-0.483-0.17-0.868-0.51
		c-0.386-0.336-0.953-0.627-1.701-0.869c-0.747-0.242-1.269-0.809-1.559-1.703c-0.29-0.896-0.603-1.596-0.939-2.105
		c-0.339-0.506-0.509-0.904-0.509-1.193l0.146-1.451l-0.362-1.523l0.652-1.016c-0.29-0.676-0.436-1.135-0.436-1.379l0.726-4.422
		c0.531-3.191,0.966-5.268,1.305-6.236c0.097-0.096,0.146-0.387,0.146-0.869l-0.146-1.814l0.146-1.014
		c0-0.727-0.243-1.111-0.726-1.16c-0.483-0.049-0.773-0.17-0.87-0.363c-0.629-0.291-0.992-0.436-1.089-0.436
		c-0.388,0-0.727,0.303-1.017,0.908c-0.29,0.604-0.679,1.146-1.16,1.631l-1.816-0.289v0.143c0,0.389-0.653,1.137-1.959,2.248
		c-1.211,0.291-2.251,0.92-3.123,1.887c-0.386,0-1.052,0.375-1.995,1.123c-0.944,0.75-1.561,1.172-1.851,1.27l-0.58,1.16
		l-1.162,0.361c-0.34,0.969-1.138,1.596-2.395,1.887l-0.727,1.377c-1.018,0.098-1.719,0.615-2.106,1.561
		c-0.386,0.941-0.676,1.412-0.87,1.412c-0.096,0-0.253-0.059-0.472-0.182c-0.217-0.119-0.423-0.182-0.617-0.182
		c-1.066,0-1.646,0.799-1.742,2.395c0,0.193-0.992,1.33-2.976,3.406c-1.986,2.08-3.05,3.145-3.195,3.191
		c-0.145,0.049-0.423,0.545-0.833,1.486c-0.413,0.943-0.98,1.645-1.706,2.104c-0.727,0.461-1.272,0.834-1.634,1.125
		c-0.363,0.289-0.642,0.434-0.835,0.434c-1.016,0-1.839-0.725-2.468-2.174c-0.629-1.451-0.943-2.201-0.943-2.248l0.437-1.523
		l-0.145-1.305c0-0.047,0.3-1.027,0.904-2.938c0.606-1.908,1.295-3.408,2.069-4.496c0.774-1.086,1.379-2.863,1.815-5.33
		c-2.177,1.451-3.484,2.176-3.919,2.176c-0.969,0-1.452-0.627-1.452-1.885C451.051,367.844,451.802,365.766,453.308,363.928z"/>
	<path fill="#4D4D4D" d="M571.673,371.613l1.155-1.014c0.724,0,1.156-0.328,1.302-0.979c0.145-0.654,0.662-1.174,1.555-1.559
		c0.89-0.389,1.722-1.174,2.493-2.357c0.771-1.186,1.567-1.777,2.387-1.777c0.287,0,0.625,0.24,1.011,0.725s0.58,0.871,0.58,1.16
		c0,1.596-0.484,3.24-1.45,4.932l-0.29,2.029l-0.507,0.943c-0.725,0.387-1.197,0.799-1.415,1.232
		c-0.217,0.436-0.785,0.969-1.702,1.596l-0.725,1.016c-1.064,0.338-1.777,0.895-2.141,1.666c-0.362,0.775-0.868,1.209-1.522,1.309
		c-0.651,0.096-1.364,0.58-2.136,1.449c-0.484,0.24-1.064,0.459-1.74,0.652l-0.146,0.725c-0.484,0.484-1.246,0.869-2.286,1.16
		c-1.037,0.289-1.81,0.568-2.318,0.834c-0.506,0.268-0.857,0.4-1.05,0.4c-0.919,0-1.765-0.182-2.539-0.547
		c-0.771-0.361-1.568-0.59-2.392-0.688c-0.29-0.291-0.459-0.605-0.507-0.943c-0.049-0.338-0.29-0.785-0.725-1.34
		c-0.436-0.557-0.651-1.318-0.651-2.283l0.29-1.379c0-0.193-0.121-0.436-0.364-0.727c-0.24-0.289-0.361-0.531-0.361-0.725
		c0-0.191,0.047-0.336,0.146-0.436c0.096-0.096,0.145-0.24,0.145-0.434c0-0.242-0.049-0.51-0.145-0.799
		c-0.099-0.291-0.146-0.531-0.146-0.725l0.436-3.553c0-0.291-0.099-0.436-0.29-0.436c-0.194,0-0.544,0.242-1.052,0.725
		c-0.507,0.484-1.1,0.725-1.777,0.725c-0.387,0.291-0.701,0.896-0.944,1.813c-0.386,0.484-0.87,0.92-1.45,1.307l-0.29,0.434
		c-0.096,0.34-0.459,0.617-1.086,0.836c-0.63,0.217-1.064,0.496-1.306,0.834l-0.725,0.725l-1.379-0.145
		c-0.097,0.098-0.364,0.52-0.799,1.268c-0.436,0.75-0.991,1.367-1.667,1.852l-5.513,4.492c-0.58,0.389-1.426,0.871-2.537,1.451
		l-0.436,0.438c-3.868,2.561-6.6,3.842-8.194,3.842c-1.308,0-2.829-0.361-4.569-1.09c-1.74-0.723-2.685-1.592-2.829-2.609
		l-0.726-2.973c-0.435-0.676-0.651-1.619-0.651-2.828c0-0.58,0.047-0.967,0.146-1.16v-0.434l-0.146-2.395
		c0-0.58,0.458-0.869,1.377-0.869l-0.146-1.957c0-0.193,0.423-0.957,1.269-2.285s1.416-2.09,1.706-2.285l0.725-0.941
		c-0.049-0.58,0.29-1.197,1.016-1.85c0.725-0.652,1.308-1.316,1.742-1.994c0.436-0.676,1.261-1.426,2.47-2.246l2.177-2.178
		c1.693-1.691,3.534-3.043,5.518-4.061c0.29-0.094,0.885-0.58,1.779-1.451c0.895-0.869,1.912-1.51,3.05-1.92
		s2.251-0.932,3.339-1.561c1.089-0.627,1.949-0.941,2.578-0.941h0.58c0.192,0,1.475-0.602,3.849-1.813h0.435
		c0.194,0,0.654,0.193,1.379,0.58h0.146l1.164-0.58c0.192-0.098,0.435-0.146,0.725-0.146c2.999,0,4.646,2.08,4.938,6.238
		c0.096,0.871,0.339,1.303,0.725,1.303c0.484,0,1.175-0.879,2.069-2.645s2.795-2.646,5.695-2.646c2.077,0,3.119,1.328,3.119,3.988
		c0,3.141-1.403,6.115-4.206,8.918c-0.194,0.389-0.339,0.824-0.436,1.305l-1.015,2.973v0.146c0,0.291-0.206,0.689-0.617,1.195
		c-0.41,0.51-0.617,0.957-0.617,1.342l0.146,1.814l-0.29,2.029c0,0.918,0.17,1.523,0.507,1.813c1.542-0.387,2.663-1.027,3.362-1.922
		c0.698-0.893,1.192-1.389,1.48-1.486l0.723-0.291C570.588,372.703,571.095,372.098,571.673,371.613z M547.592,371.613
		c0.194-1.061,0.787-1.873,1.779-2.428c0.989-0.555,1.583-1.123,1.775-1.703c0.919-0.678,2.236-1.889,3.952-3.629
		s2.576-2.801,2.576-3.189c0-0.143-0.099-0.217-0.29-0.217h-0.146l-0.58,0.363l-1.305-0.146l-1.379,0.146l-1.016-0.508l-0.943,0.145
		l-1.45-0.291c-0.772,0-1.438,0.158-1.994,0.473s-1.619,0.664-3.19,1.053c-1.572,0.385-2.986,1.049-4.244,1.992
		c-1.257,0.941-2.176,1.414-2.756,1.414c-0.339,0.725-1.475,1.766-3.407,3.117c-1.162,0.389-1.911,1.234-2.248,2.539
		c-1.259,1.016-1.886,1.596-1.886,1.74l-0.509,1.232c-0.386,0.338-0.87,0.615-1.45,0.834c-0.58,0.217-0.919,0.727-1.015,1.521
		c-0.099,0.799-0.424,1.525-0.979,2.176c-0.556,0.654-0.834,1.174-0.834,1.559c0,2.369,0.458,3.555,1.377,3.555
		c0.386,0,1.197-0.254,2.429-0.762c1.233-0.508,1.946-0.857,2.141-1.053c0.192-0.191,0.58-0.385,1.16-0.58l1.379-0.723
		c0.191-0.193,0.41-0.314,0.651-0.363c0.241-0.047,0.484-0.205,0.726-0.473c0.24-0.266,0.676-0.555,1.305-0.869
		c0.629-0.313,1.111-0.736,1.45-1.27c0.821-0.48,2.153-1.232,3.989-2.246l1.524-1.16c1.062-0.484,1.715-0.895,1.956-1.234
		C546.383,372.293,546.867,371.953,547.592,371.613z"/>
	<path fill="#4D4D4D" d="M593.904,355.152l1.087-0.289l0.435-0.941c2.367-1.402,4.061-2.732,5.078-3.99
		c0.096-0.191,0.313-0.383,0.651-0.58c0.337-0.191,0.701-0.531,1.089-1.014c1.787-1.789,3.916-2.684,6.381-2.684
		c2.9,0,4.447,1.766,4.641,5.295l0.436,1.086c0.386,0.68,0.93,2.055,1.63,4.135c0.701,2.08,1.052,3.357,1.052,3.842
		c0,1.305-0.41,2.611-1.231,3.916c-0.678,0.34-2.298,2.15-4.859,5.438l-0.725,0.508c-0.389,0.871-0.896,1.74-1.522,2.611
		c-0.968,0.34-1.45,0.701-1.45,1.088v1.305c0,0.098-0.11,0.289-0.326,0.58c-0.219,0.289-0.521,0.848-0.907,1.668l-0.58,0.871
		c-0.194,0.193-0.389,0.592-0.58,1.195c-0.194,0.605-0.472,1.148-0.834,1.633c-0.363,0.482-0.543,0.871-0.543,1.16
		c0,0.723,0.941,1.086,2.827,1.086c0.096,0,0.46-0.145,1.089-0.434l1.015,0.289c0.097,0,0.337-0.156,0.726-0.471
		c0.386-0.313,0.979-0.568,1.774-0.76c0.799-0.195,1.5-0.484,2.104-0.871c0.604-0.389,1.329-0.727,2.173-1.018
		c0.846-0.289,1.657-0.76,2.431-1.412c0.772-0.652,1.534-1.125,2.284-1.414c0.747-0.291,1.45-0.738,2.102-1.342
		c0.653-0.604,1.389-1.172,2.212-1.703c0.821-0.531,2.127-1.691,3.916-3.482c1.16-0.916,1.957-1.426,2.392-1.521
		c0.097,0,0.52-0.641,1.269-1.922c0.75-1.281,1.607-1.922,2.574-1.922c1.017,0,1.523,0.484,1.523,1.451
		c0,0.533-0.243,1.039-0.726,1.523v0.432l0.146,1.162c0.096,0.146,0.145,0.363,0.145,0.652c0,0.195-0.182,0.484-0.543,0.871
		c-0.363,0.387-0.617,0.881-0.762,1.486c-0.146,0.605-0.604,1.004-1.377,1.197c-0.29,1.063-0.666,1.666-1.123,1.813
		c-0.46,0.145-1.102,0.629-1.922,1.449c-0.823,0.824-1.983,1.789-3.481,2.9c-1.497,1.113-2.524,1.971-3.08,2.574
		s-0.932,0.906-1.123,0.906c-0.099,0-0.29-0.096-0.58-0.289s-0.484-0.291-0.58-0.291c-0.29,0-0.484,0.34-0.58,1.016l-0.29,0.725
		c-0.629,0.389-0.991,0.58-1.087,0.58l-0.435-0.145h-0.291c-0.58,0-0.87,0.217-0.87,0.654l0.436,0.723v0.146
		c0,0.676-0.388,1.014-1.16,1.014c-0.533,0-2.079,0.896-4.641,2.684l-2.103,0.436l-1.74,0.941c-0.58-0.338-0.941-0.506-1.086-0.506
		l-1.16,0.363l-2.104,0.143c-0.049,0-0.932-0.482-2.646-1.451c-1.715-0.965-2.743-1.932-3.082-2.9
		c-0.339-0.965-0.773-1.943-1.305-2.934c-0.531-0.992-0.797-1.68-0.797-2.068c0-2.32,0.192-3.975,0.58-4.967
		c0.386-0.99,0.627-1.729,0.725-2.213c0.097-0.482,0.374-1,0.834-1.559c0.459-0.555,0.833-1.461,1.123-2.719
		c1.401-2.803,2.37-4.52,2.9-5.146c0.531-0.629,0.944-1.402,1.234-2.32l0.941-1.309c0.096-0.094,0.241-0.469,0.436-1.123
		c0.193-0.65,0.435-1.025,0.725-1.123c0.386-0.676,0.58-1.111,0.58-1.305c0-1.402-0.629-2.102-1.885-2.102
		c-0.241,0-0.507,0.252-0.797,0.76s-0.956,1.004-1.994,1.486c-1.041,0.484-1.681,0.846-1.922,1.086
		c-0.243,0.244-0.762,0.547-1.561,0.908c-0.797,0.363-1.487,0.932-2.067,1.703l-1.231,0.58c-0.388,0.92-0.727,1.428-1.018,1.523
		c-0.29,0.098-1.185,0.34-2.682,0.725c-0.098,0.049-0.339,0.34-0.727,0.871c-0.389,0.533-0.942,0.799-1.667,0.799
		c-0.58,0.58-1.162,1.256-1.742,2.029c-0.194,0-0.701,0.193-1.522,0.58l-1.452,0.361c-0.388,0.291-0.811,0.75-1.269,1.379
		c-0.459,0.627-1.317,0.941-2.575,0.941c-0.726,0-1.087-0.58-1.087-1.74c0-2.367,0.833-4.252,2.5-5.654
		c1.669-1.402,2.889-2.152,3.662-2.248c0.774-0.098,1.259-0.389,1.453-0.869c0.191-0.484,0.663-0.883,1.413-1.197
		c0.748-0.314,1.618-1.016,2.61-2.104c0.991-1.088,2.067-1.824,3.228-2.211L593.904,355.152z"/>
</g>
<g>
	<path fill="#20D5FF" d="M296.668,267.078c-0.431-0.602-1.154-1.271-1.389-1.613C295.648,266.006,296.12,266.557,296.668,267.078z"
		/>
	<path fill="#20D5FF" d="M301.237,269.238c-0.715-0.158-1.426-0.299-2.121-0.434c0.119,0.063,0.257,0.109,0.384,0.164
		C300.087,269.055,300.669,269.141,301.237,269.238z"/>
	<path fill="#20D5FF" d="M296.727,268.33c0.004,0.002,0.008,0.002,0.01,0.002l2.379,0.473c-0.988-0.516-1.781-1.1-2.449-1.727
		c0.439,0.611,0.58,1.145-0.48,1.137l-0.053-0.002l0.596,0.119C296.729,268.33,296.729,268.33,296.727,268.33z"/>
	<path fill="#20D5FF" d="M349.313,263.604c-3.398,0.674-6.772,2.25-9.139,4.08C343.345,267.703,346.898,266.908,349.313,263.604z"/>
	<path fill="#20D5FF" d="M134.007,163.631l1.819,1.595c-0.234-0.382-0.418-0.836-0.534-1.415
		C135.014,163.273,134.542,163.512,134.007,163.631z"/>
	<polygon fill="#20D5FF" points="137.821,166.995 138.21,167.059 137.5,166.71 	"/>
	<path fill="#20D5FF" d="M141.064,168.852c-0.513-0.563-1.106-0.945-1.713-1.254C139.736,168.115,140.281,168.555,141.064,168.852z"
		/>
	<path fill="#20D5FF" d="M138.227,167.063l-0.016-0.004l1.141,0.538c-0.286-0.389-0.487-0.822-0.61-1.272
		C138.77,166.758,138.688,167.121,138.227,167.063z"/>
	<path fill="#20D5FF" d="M138.741,166.325c-0.028-0.419-0.183-0.916-0.191-1.151L138.741,166.325z"/>
	<path fill="#20D5FF" d="M150.465,167.611c1.86,0.718,7.327,1.404,4.952-0.339c-3.638-2.52-6.208-3.843-9.537-6.007
		c-3.001-1.29-5.992-2.362-9.005-3.771c-0.782-0.494-1.373-1.178-1.979-1.849c0.715,1,1.451,2.011,2.294,3.093
		c1.016,1.573,4.106,0.502,6.459,1.753c0.458,0.059-0.775,1.834,0.137,1.947c1.86,0.708,3.684,0.938,5.117,2.087
		C149.814,164.638,149.558,167.5,150.465,167.611z"/>
	<polygon fill="#20D5FF" points="119.949,149.035 119.959,149.109 121.07,149.758 121.131,149.569 	"/>
	<polygon fill="#20D5FF" points="436.312,250.688 436.418,250.164 436.313,250.008 	"/>
	<path fill="#20D5FF" d="M437.492,234.456c-0.043,0.02-0.055,0.038-0.092,0.058c11.21-19.877,17.634-42.811,17.634-67.256
		c0-8.102-0.743-16.025-2.09-23.741c1.433,0.722,2.868,1.585,3.808,2.777c-0.794-2.984-4.653-4.369-4.353-7.691
		c0.478-0.616,1.28-0.74,1.777-0.858c0.586-0.519-0.131-0.999-0.346-1.493c2.028-2.473,5.897-0.688,8.675-1.778
		c-0.112-0.296-0.825-0.575-0.234-0.995c-1.491,0.348-3.025-0.507-4.4,0.439c-0.513-0.285-1.319-0.462-1.241-1.166
		c1.134-2.243,3.097-0.398,4.557-1.849c0.286-0.511,0.065-1.106-0.251-1.598c-1.618-0.451-2.687,0.686-4.3,0.437
		c-2.408-0.025-2.502-3.033-4.717-3.264c-0.506-0.185-1.411-0.157-1.488,0.547c-0.503-0.067-1.001-0.168-1.489-0.297
		c-17.287-55.971-69.431-96.64-131.077-96.64c-71.505,0-130.205,54.725-136.569,124.573c-0.215-1.222-1.308-1.565-2.181-2.501
		c-1.147,0.249-1.943-0.505-3.088-0.425c-1.057,0.721-3.099,0.08-3.865,1.546c-0.157,1.275-1.02,2.608-1.551,3.944
		c-0.752,0.626-1.838,1.247-2.785,1.432c-1.001,1.43-0.502,3.559-0.468,5.444c0.104,1.753-2.684,1.4-2.113,3.396
		c0.458,0.75,0.876-0.05,1.55-0.039c0.182-0.838,0.956-0.859,1.309-1.693c2.518,0.382,4.902-1.26,7.159-1.354
		c2.172-0.902,3.886-2.724,5.031-4.587c0.168-0.488,0.46-1.049,0.734-1.632c-0.196,3.001-0.331,6.018-0.331,9.067
		c0,6.167,0.454,12.224,1.246,18.173c-2.95-2.141-5.854-3.619-8.74-4.857c3.087,1.992,5.567,3.305,8.821,5.474
		c0.071,0.519,0.125,1.043,0.202,1.561c-1.294,0.037-3.407-0.33-4.431-0.717c-0.911-0.108-0.663-2.973-1.576-3.082
		c-1.425-1.131-3.249-1.349-5.103-2.05c-0.913-0.112,0.319-1.888-0.136-1.945c-2.343-1.252-5.431-0.191-6.443-1.762l-2.279-3.094
		c-0.498-0.556-1.004-1.084-1.641-1.491l-1.423-0.448c-3.419-1.127-7.194-2.706-10.632-4.28l-0.064,0.195
		c1.837,1.197,3.408,2.714,4.486,5.267c-0.516-1.026-0.098-1.46,0.85-0.859l0.093,1.458c-1.856-0.717-3.712-1.427-4.327-3.919
		c0,0-0.917-0.116-1.371-0.171c-0.325-0.644,0.06-1.201,0.269-1.775l-1.106-0.67c0.141,1.489,1.653,4.48,1.653,4.48
		c4.386,3.421,8.417,6.797,12.295,10.187c0.534-0.113,1.009-0.354,1.287,0.192c0.109,0.571,0.297,1.025,0.524,1.409l1.683,1.5
		l0.706,0.352l0.021,0.001c0.458,0.056,0.539-0.305,0.508-0.738l-0.191-1.156c0.016,0.244,0.16,0.733,0.191,1.156
		c0.127,0.454,0.318,0.882,0.612,1.272c0.263,0.134,0.521,0.29,0.774,0.462c-0.197-0.107-0.406-0.204-0.615-0.301
		c-0.047-0.058-0.117-0.103-0.16-0.161l-0.907-0.427l-0.009-0.004l0.002,0.002l-0.228-0.106l-0.389-0.063l3.824,3.446l0.929,0.517
		c1.118,0.521,2.229,1.042,2.266,2.408l0.679,0.626l-0.034-0.275l0.157,0.387l2.872,2.645l5.734,5.225
		c6.258,5.807,7.163,2.407,6.245-2.62c0.531,0.447,1.083,0.878,1.687,1.21c2.533,1.029,5.452,1.667,8.064,3.416
		c7.387,5.325,14.85,8.899,21.925,13.355l-0.462-0.564c1.083,0.384,2.043,0.461,2.623,1.661c0.034,0.14,0.088,0.261,0.126,0.397
		c1.391,0.933,2.771,1.898,4.123,2.945c1.833,1.13,3.585,1.915,5.025,3.022c5.852,4.453,14.739,4.816,18.238,11.204
		c0.181,0.325,0.394,0.628,0.621,0.919l0.01-0.039c1.985,1.205,4.039,2.381,6.124,3.509c0.899,0.007,1.11-0.487-0.183-1.531
		c3.903,3.745,6.67,3.421,8.477,5.669c3.217,1.469,6.413,2.773,9.468,3.828l3.199,1.031c1.518,0.803,2.864,1.666,4.216,2.564
		c2.016,1.65,4.155,3.232,6.618,4.844c3.174,2.41,8.922,0.639,14.486,1.758c0.943-0.014-0.129,2.758,1.828,2.602
		c4.337,0.383,8.055-0.223,11.776,0.328c1.638-0.545,4.498,3.33,5.593,2.438c3.251-0.553,10.131-7.354,5.425-5.607
		c-3.849,1.26-4.653,1.787-8.407,1.637c-3.583-0.025-7.129-0.346-11.227-1.117c3.767,0.303,7.533,0.449,11.353,0.391
		c2.296,0.164,2.941-0.305,4.126-0.33c1.36-0.455,2.696-0.586,4.399-1.275c4.085-1.252,11.042-3.453,15.81-8.193
		c5.956-6.855,9.743-16.51,11.386-23.045c0.952-2.869,0.184-5.191,0.167-5.453c0.115-0.02-1.63-1.75-5.519-3.304
		c-7.812-3.244-19.372-5.213-31.571-8.912c-11.574-3.724-28.546-9.667-38.226-28.099c-2.067-4.367-3.604-9.024-4.188-13.45
		c-0.93-6.005-0.368-10.781,0.617-15.194c2.006-8.832,5.711-15.339,9.641-21.248c5.724-9.216,11.026-16.439,17.117-22.165
		c12.171-11.305,24.034-23.755,38.137-33.901c7.271-4.981,14.286-9.508,25.083-12.036l1.066-0.212l0.531-0.1l0.261-0.048
		l0.135-0.025l0.065-0.012c9.135,7.518-20.397-16.833,20.487,16.851l-0.004,0.023l-0.253,1.398l-0.563,2.757
		c-0.4,1.819-0.858,3.597-1.381,5.33c-0.98,3.479-2.46,6.72-4.171,9.739c-8.277,15.741-11.524,44.738-5.785,32.955
		c0.323-0.735,0.653-1.48,0.997-2.239c-0.355,0.868-0.69,1.607-0.997,2.239c-10.25,23.511-8.351,34.555-22.228,43.397
		c-1.063,0.907-16.21,6.409-14.829-13.994c4.248-14.25,8.787-42.421,12.979-57.384c-0.915,0.639-1.818,1.281-2.704,1.928
		c-14.993,11.181-29.001,24.803-40.003,39.637c-5.379,7.786-9.045,15.044-6.584,21.952c1.881,7.221,9.469,13.033,19.208,16.935
		c8.931,3.687,18.666,6.035,28.348,9.448c9.105,3.372,21.206,7.969,25.696,20.635c3.48,11.763-0.576,23.108-6.238,31.634
		c-5.679,8.795-13.358,15.895-22.228,21.404c-5.536,3.387-11.354,6.16-17.648,7.551c-3.256,0.639-6.564,0.963-9.939,0.707
		c-0.241-0.086-0.527-0.184-0.837-0.324l0.405,0.314l-2.206-0.35c-1.683-1.656-4.633-1.523-7.619-1.801
		c-0.739-0.043-1.642-0.154-2.586-0.264c-3.959-1.096-7.873-2.313-11.685-3.838l0.915,0.027l-1.867-0.395
		c-1.683-0.584-3.284-1.398-4.935-2.098c-0.803-0.561-1.569-1.227-2.239-2.061c-1.001-0.836-1.859-0.518-2.956-0.391
		c-6.773-3.344-13.361-7.225-19.892-11.584c-0.686,0.609-1.682,1.041-3.13,1.107c-3.878-1.008-11.312-3.178-14.699-5.758
		c-8.652-6.873-17.74-9.785-26.119-16.146c-4.179-3.164-8.421-6.336-12.867-9.551c-7.476-5.297-14.322-9.875-21.132-15.274
		c16.744,56.85,69.292,98.362,131.564,98.362c49.525,0,92.911-26.252,117.025-65.594 M456.854,235.027 M462.786,236.236
		 M180.309,198.039c1.163,0.419,2.198,1.725,2.642,3.412C181.228,201.256,180.648,199.68,180.309,198.039z M197.955,183.277
		c0.019-0.026-1.794-0.966-2.768-1.283c-0.784-1.23-0.127-1.892,0.16-2.713l-2.451-1.821l-0.04-0.13l2.575,1.686l-0.084,0.266
		c4.229,3.101,7.299,7.412,9.124,12.673c-0.915-2.213-0.088-2.503,1.688-0.518l0.007,2.539
		C202.764,190.709,199.393,187.853,197.955,183.277z M253.429,235.479c-1.914-0.717-2.185-5.127-4.022-5.889
		c-3.19-2.719-6.923-4.313-10.784-6.841c-1.849-0.874,0.389-2.843-0.534-3.281c-4.905-3.769-10.795-4.698-12.648-8.181
		c-1.441-2.674-2.718-4.982-3.846-7.451c0.981,1.824,2.021,3.464,3.398,5.094c5.33,5.145,11.447,9.165,17.656,13.413
		c7.052,5.773,12.574,9.467,20.868,15.025C269.038,241.104,257.491,237.813,253.429,235.479z M435.278,238.207
		c0.599-0.989,1.156-2.004,1.729-3.01c0.237,0.449,1.152,0.909,1.16,1.457C437.318,237.391,436.277,238.035,435.278,238.207z"/>
	<path fill="#20D5FF" d="M155.499,113.669c0.558-1.066,0.562-3.187,2.108-3.058c0.058,0.539,0.081,1.147-0.197,1.68
		c0.88-0.389,0.714-2.343,1.338-3.375c1.534,0.8,0.301,2.024,0.418,3.104c1.071,0.222,1.466-1.186,2.401-0.697
		c0.163,0.339,0.189,0.608-0.05,0.907c0.378-0.396,1.3-1.188,1.981-1.681c0.563-1.403,1.125-2.639,0.578-4.029
		c0.65-0.594,1.208-1.662,2.058-2.151l0.561,0.549c1.425-0.615,0.787-2.478,2.51-2.851c0.229-1.577,1.165-3.043,1.128-4.759
		c0.339-0.162,0.676-0.157,1.047-0.217c-1.653-1.713-0.773-3.884-1.813-5.956c-0.137,0.097-0.946,0.184-0.867-0.452
		c0.482-0.599,1.328-0.92,2.075-1.209c-0.743,0.121-1.193-1.132-1.978-0.44c-3.221,1.291-7.328-0.602-9.946,2.785
		c-2.016,3.7-4.114,8.04-4.567,12.642c-0.883,4.293-0.624,8.673-0.196,12.888C155.615,116.704,154.738,114.801,155.499,113.669z"/>
	<path fill="#20D5FF" d="M167.596,112.943c-0.708,0.055-1.9-1.077-2.59-0.08c-2.11-0.676-1.646,1.688-3.499,1.823
		c-1.828,0.574-0.582,2.414-2.343,3.021c0.081,1.148,0.344-0.498,0.91-0.118c1.703,0.805-0.809,1.87-0.658,3.052
		c0.802,0.249,0.558-1.067,1.456-0.513c0.899,0.554-0.359,1.17-0.47,1.708l1.429-0.782c1.263,0.83-0.783,2.308,0.217,2.999
		l0.39-1.238c1.403-1.222,0.889,1.228,1.657,1.544c0.409-0.296,0.49-1.103,0.702-1.671c0.604,0.146,1.724-0.373,1.847,0.369
		c0.271-0.196-0.258-0.642,0.213-0.736c1.529-0.646,1.334,0.698,2.264,1.354c1.154-2.37,3.357-3.171,3.74-5.857
		c-0.156-0.676-0.036-1.717-0.802-2.202C170.584,113.401,168.282,116.019,167.596,112.943z"/>
	<polygon fill="#20D5FF" points="152.676,124.762 152.475,124.826 152.773,125.066 	"/>
	<path fill="#20D5FF" d="M151.557,125.282c-0.134-0.07-0.242,0.296-0.312,0.43C151.315,125.578,151.687,125.519,151.557,125.282z"/>
	<path fill="#20D5FF" d="M137.979,152.573c0.294,0.408,0.182,1.113,0.106,1.583c0.197,0.273,0.314,1.184,0.962,0.758
		c0.694-1.166,1.273-1.628,2.558-1.975c1.046-0.048,0.454,1.086,0.913,1.666c1.1,0.66,2.203-0.802,3.285-1.086
		c1.472-1.354,2.109-3.059,1.401-4.956c0.731,0.551,0.992-0.925,1.584-0.107c-0.314,0.601-1.399,1.052-0.942,1.802
		c0.384-0.733,1.611-1.621,2.303-0.666c-0.046,0.571-0.628,1.201-0.569,1.572l1.042-1.834c1.133,0.762-0.872,1.837-0.685,2.615
		c0.611-0.191,0.889-0.723,1.234-1.224c1.276,0.158,1.939-1.109,3.241-0.514c2.262-2.384,0.818-6.281,2.682-8.871
		c2.117,0.172,4.204-1.709,5.183-3.745c1.426-0.615,1.115-2.134,1.505-3.373c-0.037-1.548-1.088-3.116-2.662-3.515
		c-0.646,0.257-2.089,0.097-2.41,1.033c-2.706,0.794-2.29,3.899-3.771,5.757c0.499,0.345,0.815-0.423,1.347,0.024
		c-0.759,0.963-0.986,2.373-0.806,3.655c0.565,0.38,0.722-0.896,0.924-0.96c0.592,0.819-0.13,1.715-0.613,2.312
		c-0.39-0.714-1.113-1.77-1.926-1.516c-1.3-0.595-2.198,0.635-3.186,1.222c-2.01,1.413-2.425,3.997-3.608,6.096l-0.659-0.685
		c-1.139-0.424-2.121-0.004-2.976,0.655c-0.658-0.854-0.91-1.834-2.157-1.722c-1.215,0.214-1.932,0.774-2.687,1.568
		c-1.099,1.294-0.924,2.743-0.646,4.163c-0.569-0.212-0.818-1.361-1.699-0.973c-0.813,0.255-1.363,0.986-1.681,1.754
		c-0.182,0.837,0.094,2.255,0.762,2.604C136.487,154.934,137.75,153.981,137.979,152.573z"/>
	
		<rect x="151.1" y="126.014" transform="matrix(0.8865 0.4628 -0.4628 0.8865 75.5467 -55.6208)" fill="#20D5FF" width="0.075" height="0.302"/>
	<path fill="#20D5FF" d="M152.177,135.021c-0.623,0.072-1.134,0.525-1.351,1.085c-0.096,0.184-0.142,0.407-0.163,0.637
		C151.08,136.072,151.145,135.292,152.177,135.021z"/>
	<path fill="#20D5FF" d="M152.257,134.986c-0.034,0.007-0.048,0.025-0.081,0.035c0.033-0.004,0.063-0.01,0.095-0.012
		C152.266,135,152.265,134.994,152.257,134.986z"/>
	<path fill="#20D5FF" d="M151.447,138.023c0.358-0.162,0.665-0.366,0.921-0.61C152.074,137.623,151.697,137.79,151.447,138.023z"/>
	<path fill="#20D5FF" d="M151.425,138.035c-0.854,0.042-0.036-0.923-0.763-1.247c-0.036,0.51,0.095,1.063,0.428,1.41
		C151.21,138.149,151.31,138.087,151.425,138.035z"/>
	<path fill="#20D5FF" d="M151.447,138.023c-0.007,0.004-0.015,0.008-0.022,0.011c0.003,0,0.004,0.001,0.007,0.001
		C151.436,138.032,151.443,138.028,151.447,138.023z"/>
	<path fill="#20D5FF" d="M150.663,136.744c-0.007,0.01-0.01,0.022-0.017,0.033c0.007,0.003,0.009,0.008,0.016,0.011
		C150.663,136.773,150.661,136.758,150.663,136.744z"/>
	<path fill="#20D5FF" d="M152.92,135.67c0.194,0.441,0.083,0.979,0.011,1.28l0.145-0.603c0.075-0.471-0.146-1.181-0.65-1.358
		c-0.054-0.003-0.102,0.016-0.155,0.02C152.794,135.698,152.023,135.624,152.92,135.67z"/>
	<path fill="#20D5FF" d="M108.394,116.569c-0.71,0.054-1.124,0.687-1.601,1.116c-0.417,0.8,0.073,1.482,0.601,2.097
		c0.846-0.322,1.665-0.913,2.052-1.814C109.523,117.329,109.132,116.615,108.394,116.569z"/>
	<path fill="#20D5FF" d="M124.441,145.33c-1.912,1.234-1.823,3.515-1.978,5.437c-0.444-0.365-0.908-0.7-1.393-1.009
		c-0.199,0.587-0.576,1.15-0.245,1.792c0.454,0.046,1.367,0.151,1.367,0.151c0.173,0.67,0.441,1.201,0.768,1.646
		c0.019,0.08,0.021,0.168,0.057,0.238c0.06-0.005,0.105,0.021,0.162,0.023c0.88,1.012,2.124,1.49,3.375,1.957l-0.112-1.459
		c-0.161-0.099-0.281-0.13-0.409-0.173c1.266-0.679,2.575-1.506,3.618-2.484c1.11-1.798,1.828-4.309,0.616-6.216
		C128.645,143.62,125.755,143.299,124.441,145.33z M125.186,154.179c0.075,0.002,0.148,0.006,0.229-0.005
		c-0.027,0.195,0.007,0.446,0.193,0.8C125.481,154.68,125.326,154.445,125.186,154.179z"/>
	<path fill="#20D5FF" d="M82.783,129.509c-0.992,0.924-2.051,1.815-2.244,3.157c-0.254,1.14,0.97,2.205,0.648,3.312
		c1.169,0.526,2.746,0.755,3.838-0.033c1.531-0.983,2.205-2.923,2.738-4.597l-0.17-1.618
		C86.413,127.924,84.272,129.097,82.783,129.509z"/>
	<path fill="#20D5FF" d="M458.057,258.253c0.948-0.091,0.795,1.293,1.793,1.069c-1.619-0.928,0.726-2.077-0.213-3.199
		c0.468-0.427,1.271,0.642,1.588-0.376c-1.089-0.723-0.539-1.955-0.445-2.981c0.558-0.474,1.229-0.44,1.656-0.962
		c-1.098-0.498-1.843-1.922-1.414-3.428c0.52-0.563,1.528-0.021,1.957-0.539c-0.39-1.368-1.54,0.243-2.385-0.92
		c-0.824-0.619,0.113-1.475,0.275-2.098l-1.233-0.549l0.47-1.415c-0.652-0.478-2.383,0.073-2.504-1.192
		c0.243-0.437,0.762-0.996,0.324-1.242c-2.016,0.896-3.585-1.151-5.457-1.416c-0.855-0.938,0.663-1.718,1.1-2.462
		c1.853,1.7,1.833-1.803,3.563-1.366c0.776-1.222,1.874-2.699,1.672-4.143c-1.202-1.222-0.203-3.422-1.628-4.654
		c-1.681-0.568-3.258-1.406-5.021-1.169c-2.953,0.761-5.224,2.32-5.806,5.211c-0.815,1.131,0.784,1.516,1.294,2.173
		c1.812,1.604-0.723,3.063-1.326,4.426c-0.343,0.705,0.204,1.444,1.011,1.529c2.636,0.252,2.699-4.055,5.02-2.781
		c-0.356,1.914-1.548,3.432-2.526,5.183c-1.834,0.815-2.781,2.881-4.998,3.321c-1.497,0.335-2.751-0.754-3.942-1.215
		c-1.049,1.345-2.892-0.579-3.757,0.687c1.476,0.106,0.642,1.688,2.158,1.891c1.406-0.295,2.74-0.009,4.185,0.774
		c1.313,0.731,0.174,2.119,0.134,3.014c-2.871,2.702-3.113,7.314-5.236,10.133c0.964-0.756,2.57-0.174,3.229-1.56
		c0.651,0.48,0.855,1.925,1.682,2.548c1.007-0.448,2.158-2.059,3.717-0.773c-0.103,2.237,2.695,2.856,3.236,4.816
		C454.167,263.818,453.333,258.486,458.057,258.253z"/>
	<path fill="#20D5FF" d="M467.063,241.593c-0.024-0.802-0.815-0.476-1.207-0.163C466.353,241.314,466.403,242.918,467.063,241.593z"
		/>
	<path fill="#20D5FF" d="M489.75,123.385l-0.214-0.495C489.544,123.192,489.346,123.296,489.75,123.385z"/>
</g>
</svg>
